{
  "accessors": [
    {
      "bufferView": 2,
      "componentType": 5126,
      "count": 714,
      "max": [
        2.569000005722046,
        0.24000000953674316,
        0.03905624896287918
      ],
      "min": [
        0.014939168468117714,
        -0.2600000202655792,
        -0.7210547924041748
      ],
      "type": "VEC3"
    },
    {
      "bufferView": 2,
      "byteOffset": 8568,
      "componentType": 5126,
      "count": 714,
      "max": [
        1.0,
        0.0,
        1.0
      ],
      "min": [
        -1.0,
        -1.0,
        -1.0
      ],
      "type": "VEC3"
    },
    {
      "bufferView": 1,
      "componentType": 5126,
      "count": 714,
      "max": [
        1.0,
        1.0
      ],
      "min": [
        0.0,
        0.0
      ],
      "type": "VEC2"
    },
    {
      "bufferView": 0,
      "componentType": 5125,
      "count": 2598,
      "type": "SCALAR"
    },
    {
      "bufferView": 2,
      "byteOffset": 17136,
      "componentType": 5126,
      "count": 490,
      "max": [
        0.7980390787124634,
        0.25890764594078064,
        0.029037505388259888
      ],
      "min": [
        0.024959439411759377,
        0.2189076542854309,
        -0.7110365629196167
      ],
      "type": "VEC3"
    },
    {
      "bufferView": 2,
      "byteOffset": 23016,
      "componentType": 5126,
      "count": 490,
      "max": [
        1.0,
        0.999632716178894,
        1.0
      ],
      "min": [
        -1.0,
        -0.999632716178894,
        -1.0
      ],
      "type": "VEC3"
    },
    {
      "bufferView": 1,
      "byteOffset": 5712,
      "componentType": 5126,
      "count": 490,
      "max": [
        1.0,
        1.0
      ],
      "min": [
        0.0,
        0.0
      ],
      "type": "VEC2"
    },
    {
      "bufferView": 0,
      "byteOffset": 10392,
      "componentType": 5125,
      "count": 2304,
      "type": "SCALAR"
    },
    {
      "bufferView": 2,
      "byteOffset": 28896,
      "componentType": 5126,
      "count": 290,
      "max": [
        1.3430308103561401,
        0.25890764594078064,
        0.019999999552965164
      ],
      "min": [
        0.8730000257492065,
        0.2189076542854309,
        -0.7020000219345093
      ],
      "type": "VEC3"
    },
    {
      "bufferView": 2,
      "byteOffset": 32376,
      "componentType": 5126,
      "count": 290,
      "max": [
        0.9999982118606567,
        0.9999479651451111,
        0.999742329120636
      ],
      "min": [
        -0.9999982118606567,
        -0.9999479651451111,
        -0.999742329120636
      ],
      "type": "VEC3"
    },
    {
      "bufferView": 1,
      "byteOffset": 9632,
      "componentType": 5126,
      "count": 290,
      "max": [
        1.0,
        1.0
      ],
      "min": [
        0.0,
        0.0
      ],
      "type": "VEC2"
    },
    {
      "bufferView": 0,
      "byteOffset": 19608,
      "componentType": 5125,
      "count": 1344,
      "type": "SCALAR"
    },
    {
      "bufferView": 2,
      "byteOffset": 35856,
      "componentType": 5126,
      "count": 65,
      "max": [
        1.8240001201629639,
        0.25890764594078064,
        0.019999999552965164
      ],
      "min": [
        1.3880001306533813,
        0.2189076542854309,
        -0.7020000219345093
      ],
      "type": "VEC3"
    },
    {
      "bufferView": 2,
      "byteOffset": 36636,
      "componentType": 5126,
      "count": 65,
      "max": [
        0.7071068286895752,
        0.9636958837509155,
        0.7071068286895752
      ],
      "min": [
        -0.7071068286895752,
        -0.9636958837509155,
        -0.7071068286895752
      ],
      "type": "VEC3"
    },
    {
      "bufferView": 1,
      "byteOffset": 11952,
      "componentType": 5126,
      "count": 65,
      "max": [
        1.0,
        1.0
      ],
      "min": [
        0.0,
        0.0
      ],
      "type": "VEC2"
    },
    {
      "bufferView": 0,
      "byteOffset": 24984,
      "componentType": 5125,
      "count": 288,
      "type": "SCALAR"
    },
    {
      "bufferView": 2,
      "byteOffset": 37416,
      "componentType": 5126,
      "count": 55,
      "max": [
        2.559000015258789,
        0.25890764594078064,
        0.019999999552965164
      ],
      "min": [
        1.8870000839233398,
        0.2189076542854309,
        -0.7020000219345093
      ],
      "type": "VEC3"
    },
    {
      "bufferView": 2,
      "byteOffset": 38076,
      "componentType": 5126,
      "count": 55,
      "max": [
        0.7071068286895752,
        0.9841874241828918,
        0.9367436766624451
      ],
      "min": [
        -0.7071068286895752,
        -0.9841874241828918,
        -0.9367436766624451
      ],
      "type": "VEC3"
    },
    {
      "bufferView": 1,
      "byteOffset": 12472,
      "componentType": 5126,
      "count": 55,
      "max": [
        1.0,
        1.0
      ],
      "min": [
        0.0,
        0.0
      ],
      "type": "VEC2"
    },
    {
      "bufferView": 0,
      "byteOffset": 26136,
      "componentType": 5125,
      "count": 240,
      "type": "SCALAR"
    }
  ],
  "asset": {
    "extras": {
      "author": "MemesaMillion (https://sketchfab.com/MemesaMillion)",
      "license": "CC-BY-4.0 (http://creativecommons.org/licenses/by/4.0/)",
      "source": "https://sketchfab.com/3d-models/neon-open-sign-64a6db3875d24bfa9011c7ff787d375c",
      "title": "Neon open sign"
    },
    "generator": "Sketchfab-15.97.0",
    "version": "2.0"
  },
  "bufferViews": [
    {
      "buffer": 0,
      "byteLength": 27096,
      "name": "floatBufferViews",
      "target": 34963
    },
    {
      "buffer": 0,
      "byteLength": 12912,
      "byteOffset": 27096,
      "byteStride": 8,
      "name": "floatBufferViews",
      "target": 34962
    },
    {
      "buffer": 0,
      "byteLength": 38736,
      "byteOffset": 40008,
      "byteStride": 12,
      "name": "floatBufferViews",
      "target": 34962
    }
  ],
  "buffers": [
    {
      "byteLength": 78744,
      "uri": "scene.bin"
    }
  ],
  "extensionsUsed": [
    "KHR_materials_emissive_strength"
  ],
  "materials": [
    {
      "doubleSided": true,
      "name": "Material.005",
      "pbrMetallicRoughness": {
        "baseColorFactor": [
          0.0,
          0.0,
          0.0,
          1.0
        ],
        "metallicFactor": 0.0,
        "roughnessFactor": 0.5
      }
    },
    {
      "doubleSided": true,
      "emissiveFactor": [
        0.0295413,
        0.0,
        1.0
      ],
      "extensions": {
        "KHR_materials_emissive_strength": {
          "emissiveStrength": 10.0
        }
      },
      "name": "Material.001",
      "pbrMetallicRoughness": {
        "baseColorFactor": [
          0.0,
          0.0,
          0.0,
          1.0
        ]
      }
    },
    {
      "doubleSided": true,
      "emissiveFactor": [
        1.0,
        0.00146787,
        0.0
      ],
      "extensions": {
        "KHR_materials_emissive_strength": {
          "emissiveStrength": 10.0
        }
      },
      "name": "Material.002",
      "pbrMetallicRoughness": {
        "baseColorFactor": [
          0.0,
          0.0,
          0.0,
          1.0
        ]
      }
    },
    {
      "doubleSided": true,
      "emissiveFactor": [
        0.0,
        1.0,
        0.000125545
      ],
      "extensions": {
        "KHR_materials_emissive_strength": {
          "emissiveStrength": 10.0
        }
      },
      "name": "Material.003",
      "pbrMetallicRoughness": {
        "baseColorFactor": [
          0.0,
          0.0,
          0.0,
          1.0
        ]
      }
    },
    {
      "doubleSided": true,
      "emissiveFactor": [
        1.0,
        0.955275,
        0.0
      ],
      "extensions": {
        "KHR_materials_emissive_strength": {
          "emissiveStrength": 10.0
        }
      },
      "name": "Material.004",
      "pbrMetallicRoughness": {
        "baseColorFactor": [
          0.0,
          0.0,
          0.0,
          1.0
        ]
      }
    }
  ],
  "meshes": [
    {
      "name": "Object_0",
      "primitives": [
        {
          "attributes": {
            "NORMAL": 1,
            "POSITION": 0,
            "TEXCOORD_0": 2
          },
          "indices": 3,
          "material": 0,
          "mode": 4
        }
      ]
    },
    {
      "name": "Object_1",
      "primitives": [
        {
          "attributes": {
            "NORMAL": 5,
            "POSITION": 4,
            "TEXCOORD_0": 6
          },
          "indices": 7,
          "material": 1,
          "mode": 4
        }
      ]
    },
    {
      "name": "Object_2",
      "primitives": [
        {
          "attributes": {
            "NORMAL": 9,
            "POSITION": 8,
            "TEXCOORD_0": 10
          },
          "indices": 11,
          "material": 2,
          "mode": 4
        }
      ]
    },
    {
      "name": "Object_3",
      "primitives": [
        {
          "attributes": {
            "NORMAL": 13,
            "POSITION": 12,
            "TEXCOORD_0": 14
          },
          "indices": 15,
          "material": 3,
          "mode": 4
        }
      ]
    },
    {
      "name": "Object_4",
      "primitives": [
        {
          "attributes": {
            "NORMAL": 17,
            "POSITION": 16,
            "TEXCOORD_0": 18
          },
          "indices": 19,
          "material": 4,
          "mode": 4
        }
      ]
    }
  ],
  "nodes": [
    {
      "children": [
        1
      ],
      "matrix": [
        1.0,
        0.0,
        0.0,
        0.0,
        0.0,
        2.220446049250313e-16,
        -1.0,
        0.0,
        0.0,
        1.0,
        2.220446049250313e-16,
        0.0,
        0.0,
        0.0,
        0.0,
        1.0
      ],
      "name": "Sketchfab_model"
    },
    {
      "children": [
        2
      ],
      "name": "root"
    },
    {
      "children": [
        3
      ],
      "matrix": [
        1.0,
        0.0,
        0.0,
        0.0,
        0.0,
        2.220446049250313e-16,
        1.0,
        0.0,
        0.0,
        -1.0,
        2.220446049250313e-16,
        0.0,
        0.0,
        0.0,
        0.0,
        1.0
      ],
      "name": "GLTF_SceneRootNode"
    },
    {
      "children": [
        4,
        5,
        6,
        7,
        8
      ],
      "matrix": [
        1.0,
        0.0,
        0.0,
        0.0,
        0.0,
        0.0,
        1.0,
        0.0,
        0.0,
        -1.0,
        0.0,
        0.0,
        0.0,
        -0.23890765011310577,
        0.0,
        1.0
      ],
      "name": "Text.001_0"
    },
    {
      "mesh": 0,
      "name": "Object_4"
    },
    {
      "mesh": 1,
      "name": "Object_5"
    },
    {
      "mesh": 2,
      "name": "Object_6"
    },
    {
      "mesh": 3,
      "name": "Object_7"
    },
    {
      "mesh": 4,
      "name": "Object_8"
    }
  ],
  "scene": 0,
  "scenes": [
    {
      "name": "Sketchfab_Scene",
      "nodes": [
        0
      ]
    }
  ]
}
