{
  "accessors": [
    {
      "bufferView": 2,
      "componentType": 5126,
      "count": 49076,
      "max": [
        3.225529909133911,
        0.33493000268936157,
        2.9473700523376465
      ],
      "min": [
        -3.0949199199676514,
        -0.05773000046610832,
        -0.0575999990105629
      ],
      "type": "VEC3"
    },
    {
      "bufferView": 2,
      "byteOffset": 588912,
      "componentType": 5126,
      "count": 49076,
      "max": [
        1.0,
        0.9999984502792358,
        1.0
      ],
      "min": [
        -0.9999995231628418,
        -1.0,
        -1.0
      ],
      "type": "VEC3"
    },
    {
      "bufferView": 1,
      "componentType": 5126,
      "count": 49076,
      "max": [
        0.9977899789810181,
        0.9958440065383911
      ],
      "min": [
        0.002102999947965145,
        0.30640700459480286
      ],
      "type": "VEC2"
    },
    {
      "bufferView": 0,
      "componentType": 5125,
      "count": 259956,
      "type": "SCALAR"
    }
  ],
  "asset": {
    "extras": {
      "author": "yaro.pro (https://sketchfab.com/yaro.pro)",
      "license": "CC-BY-NC-SA-4.0 (http://creativecommons.org/licenses/by-nc-sa/4.0/)",
      "source": "https://sketchfab.com/3d-models/underground-garage-door-6380fc0dcb814a22b8ecf0fd33b151b5",
      "title": "Underground garage door"
    },
    "generator": "Sketchfab-13.68.0",
    "version": "2.0"
  },
  "bufferViews": [
    {
      "buffer": 0,
      "byteLength": 1039824,
      "name": "floatBufferViews",
      "target": 34963
    },
    {
      "buffer": 0,
      "byteLength": 392608,
      "byteOffset": 1039824,
      "byteStride": 8,
      "name": "floatBufferViews",
      "target": 34962
    },
    {
      "buffer": 0,
      "byteLength": 1177824,
      "byteOffset": 1432432,
      "byteStride": 12,
      "name": "floatBufferViews",
      "target": 34962
    }
  ],
  "buffers": [
    {
      "byteLength": 2610256,
      "uri": "scene.bin"
    }
  ],
  "extensionsUsed": [
    "KHR_materials_unlit"
  ],
  "images": [
    {
      "uri": "textures/main_baseColor.jpeg"
    }
  ],
  "materials": [
    {
      "doubleSided": true,
      "extensions": {
        "KHR_materials_unlit": {}
      },
      "name": "main",
      "pbrMetallicRoughness": {
        "baseColorTexture": {
          "index": 0
        },
        "metallicFactor": 0.0
      }
    }
  ],
  "meshes": [
    {
      "name": "Object_0",
      "primitives": [
        {
          "attributes": {
            "NORMAL": 1,
            "POSITION": 0,
            "TEXCOORD_0": 2
          },
          "indices": 3,
          "material": 0,
          "mode": 4
        }
      ]
    }
  ],
  "nodes": [
    {
      "children": [
        1
      ],
      "matrix": [
        0.8333333134651184,
        0.0,
        0.0,
        0.0,
        0.0,
        1.850371663592295e-16,
        -0.8333333134651184,
        0.0,
        0.0,
        0.8333333134651184,
        1.850371663592295e-16,
        0.0,
        0.0,
        0.0,
        0.0,
        1.0
      ],
      "name": "Sketchfab_model"
    },
    {
      "children": [
        2
      ],
      "name": "Scaniverse.obj.cleaner.materialmerger.gles"
    },
    {
      "mesh": 0,
      "name": "Object_2"
    }
  ],
  "samplers": [
    {
      "magFilter": 9729,
      "minFilter": 9987,
      "wrapS": 10497,
      "wrapT": 10497
    }
  ],
  "scene": 0,
  "scenes": [
    {
      "name": "Sketchfab_Scene",
      "nodes": [
        0
      ]
    }
  ],
  "textures": [
    {
      "sampler": 0,
      "source": 0
    }
  ]
}
