{
  "accessors": [
    {
      "bufferView": 2,
      "componentType": 5126,
      "count": 4008,
      "max": [
        120.7770004272461,
        -39.137001037597656,
        220.19500732421875
      ],
      "min": [
        -357.72601318359375,
        -650.9749755859375,
        182.2469940185547
      ],
      "type": "VEC3"
    },
    {
      "bufferView": 2,
      "byteOffset": 48096,
      "componentType": 5126,
      "count": 4008,
      "max": [
        1.0,
        1.0,
        1.0
      ],
      "min": [
        -1.0,
        -1.0,
        -1.0
      ],
      "type": "VEC3"
    },
    {
      "bufferView": 1,
      "componentType": 5126,
      "count": 4008,
      "max": [
        1.0,
        1.0
      ],
      "min": [
        0.0,
        0.0
      ],
      "type": "VEC2"
    },
    {
      "bufferView": 0,
      "componentType": 5125,
      "count": 16848,
      "type": "SCALAR"
    },
    {
      "bufferView": 2,
      "byteOffset": 96192,
      "componentType": 5126,
      "count": 2269,
      "max": [
        325.14300537109375,
        13.815999984741211,
        227.43499755859375
      ],
      "min": [
        -477.99200439453125,
        -115.48200225830078,
        207.43499755859375
      ],
      "type": "VEC3"
    },
    {
      "bufferView": 2,
      "byteOffset": 123420,
      "componentType": 5126,
      "count": 2269,
      "max": [
        1.0,
        0.9864962697029114,
        0.9999291896820068
      ],
      "min": [
        -1.0,
        -0.9998881220817566,
        -0.99378901720047
      ],
      "type": "VEC3"
    },
    {
      "bufferView": 1,
      "byteOffset": 32064,
      "componentType": 5126,
      "count": 2269,
      "max": [
        1.0,
        0.6560099720954895
      ],
      "min": [
        0.0,
        0.3439899981021881
      ],
      "type": "VEC2"
    },
    {
      "bufferView": 0,
      "byteOffset": 67392,
      "componentType": 5125,
      "count": 6921,
      "type": "SCALAR"
    },
    {
      "bufferView": 2,
      "byteOffset": 150648,
      "componentType": 5126,
      "count": 655,
      "max": [
        95.9749984741211,
        -71.63200378417969,
        227.43499755859375
      ],
      "min": [
        -335.62200927734375,
        -198.0290069580078,
        207.43499755859375
      ],
      "type": "VEC3"
    },
    {
      "bufferView": 2,
      "byteOffset": 158508,
      "componentType": 5126,
      "count": 655,
      "max": [
        0.9984979629516602,
        0.995751678943634,
        0.9999986886978149
      ],
      "min": [
        -0.9810650944709778,
        -0.9989498853683472,
        -0.9930471181869507
      ],
      "type": "VEC3"
    },
    {
      "bufferView": 1,
      "byteOffset": 50216,
      "componentType": 5126,
      "count": 655,
      "max": [
        1.0,
        0.6560099720954895
      ],
      "min": [
        0.0,
        0.3439899981021881
      ],
      "type": "VEC2"
    },
    {
      "bufferView": 0,
      "byteOffset": 95076,
      "componentType": 5125,
      "count": 2262,
      "type": "SCALAR"
    },
    {
      "bufferView": 2,
      "byteOffset": 166368,
      "componentType": 5126,
      "count": 762,
      "max": [
        -13.050999641418457,
        -196.302001953125,
        227.43499755859375
      ],
      "min": [
        -159.45899963378906,
        -527.8159790039063,
        207.43499755859375
      ],
      "type": "VEC3"
    },
    {
      "bufferView": 2,
      "byteOffset": 175512,
      "componentType": 5126,
      "count": 762,
      "max": [
        0.9999990463256836,
        0.9999912977218628,
        0.994185209274292
      ],
      "min": [
        -0.9704930782318115,
        -0.9877350330352783,
        -0.994185209274292
      ],
      "type": "VEC3"
    },
    {
      "bufferView": 1,
      "byteOffset": 55456,
      "componentType": 5126,
      "count": 762,
      "max": [
        1.0,
        0.6560099720954895
      ],
      "min": [
        0.0,
        0.3439899981021881
      ],
      "type": "VEC2"
    },
    {
      "bufferView": 0,
      "byteOffset": 104124,
      "componentType": 5125,
      "count": 2754,
      "type": "SCALAR"
    },
    {
      "bufferView": 2,
      "byteOffset": 184656,
      "componentType": 5126,
      "count": 3478,
      "max": [
        110.66999816894531,
        -436.4280090332031,
        227.43499755859375
      ],
      "min": [
        -291.2179870605469,
        -721.0360107421875,
        206.74600219726563
      ],
      "type": "VEC3"
    },
    {
      "bufferView": 2,
      "byteOffset": 226392,
      "componentType": 5126,
      "count": 3478,
      "max": [
        0.9994292855262756,
        0.9987524747848511,
        0.9935638308525085
      ],
      "min": [
        -0.9993435740470886,
        -1.0,
        -0.993563711643219
      ],
      "type": "VEC3"
    },
    {
      "bufferView": 1,
      "byteOffset": 61552,
      "componentType": 5126,
      "count": 3478,
      "max": [
        1.0,
        0.6560099720954895
      ],
      "min": [
        0.0,
        0.3439899981021881
      ],
      "type": "VEC2"
    },
    {
      "bufferView": 0,
      "byteOffset": 115140,
      "componentType": 5125,
      "count": 11205,
      "type": "SCALAR"
    }
  ],
  "asset": {
    "extras": {
      "author": "Kirkieb (https://sketchfab.com/kirkieo)",
      "license": "CC-BY-4.0 (http://creativecommons.org/licenses/by/4.0/)",
      "source": "https://sketchfab.com/3d-models/neon-palm-tree-sign-f8366d37c75b4a92b784ffbb72f3900a",
      "title": "Neon Palm Tree Sign"
    },
    "generator": "Sketchfab-12.70.0",
    "version": "2.0"
  },
  "bufferViews": [
    {
      "buffer": 0,
      "byteLength": 159960,
      "name": "floatBufferViews",
      "target": 34963
    },
    {
      "buffer": 0,
      "byteLength": 89376,
      "byteOffset": 159960,
      "byteStride": 8,
      "name": "floatBufferViews",
      "target": 34962
    },
    {
      "buffer": 0,
      "byteLength": 268128,
      "byteOffset": 249336,
      "byteStride": 12,
      "name": "floatBufferViews",
      "target": 34962
    }
  ],
  "buffers": [
    {
      "byteLength": 517464,
      "uri": "scene.bin"
    }
  ],
  "extensionsUsed": [
    "KHR_materials_clearcoat"
  ],
  "images": [
    {
      "uri": "textures/Butterfly_Bush_8bf9d5ea-bde1-48da-8210-ffa9d922408f_baseColor.jpeg"
    },
    {
      "uri": "textures/Sonata_28_0f4f3201-ebe1-46fe-97a5-133aa3aaf8a8_baseColor.jpeg"
    },
    {
      "uri": "textures/Sonata_3_f3084e0e-1c4a-447d-9cfd-6f11110831d9_baseColor.jpeg"
    },
    {
      "uri": "textures/Sonata_3_f3084e0e-1c4a-447d-9cfd-6f11110831d9_metallicRoughness.png"
    },
    {
      "uri": "textures/Sonata_5_82008ba2-51b4-48d3-8f93-1440fdcc0c75_baseColor.jpeg"
    },
    {
      "uri": "textures/Sonata_9_2c03ab2d-c77c-42f5-a7d0-40c365fe9adb_baseColor.jpeg"
    }
  ],
  "materials": [
    {
      "doubleSided": true,
      "name": "Butterfly_Bush_8bf9d5ea-bde1-48da-8210-ffa9d922408f",
      "pbrMetallicRoughness": {
        "baseColorTexture": {
          "index": 0
        },
        "metallicFactor": 0.0
      }
    },
    {
      "alphaMode": "BLEND",
      "doubleSided": true,
      "emissiveFactor": [
        1.0,
        1.0,
        1.0
      ],
      "emissiveTexture": {
        "index": 1
      },
      "extensions": {
        "KHR_materials_clearcoat": {
          "clearcoatFactor": 1.0,
          "clearcoatRoughnessFactor": 0.04
        }
      },
      "name": "Sonata_28_0f4f3201-ebe1-46fe-97a5-133aa3aaf8a8",
      "pbrMetallicRoughness": {
        "baseColorFactor": [
          1.0,
          1.0,
          1.0,
          0.652
        ],
        "baseColorTexture": {
          "index": 1
        },
        "metallicFactor": 0.0
      }
    },
    {
      "alphaMode": "BLEND",
      "doubleSided": true,
      "emissiveFactor": [
        0.5643160717217226,
        0.5643160717217226,
        0.5643160717217226
      ],
      "emissiveTexture": {
        "index": 2
      },
      "extensions": {
        "KHR_materials_clearcoat": {
          "clearcoatFactor": 1.0,
          "clearcoatRoughnessFactor": 0.04
        }
      },
      "name": "Sonata_3_f3084e0e-1c4a-447d-9cfd-6f11110831d9",
      "pbrMetallicRoughness": {
        "baseColorFactor": [
          1.0,
          1.0,
          1.0,
          0.652
        ],
        "baseColorTexture": {
          "index": 2
        },
        "metallicFactor": 0.37260061166542024,
        "metallicRoughnessTexture": {
          "index": 3
        }
      }
    },
    {
      "alphaMode": "BLEND",
      "doubleSided": true,
      "emissiveFactor": [
        1.0,
        1.0,
        1.0
      ],
      "emissiveTexture": {
        "index": 4
      },
      "extensions": {
        "KHR_materials_clearcoat": {
          "clearcoatFactor": 1.0,
          "clearcoatRoughnessFactor": 0.04
        }
      },
      "name": "Sonata_5_82008ba2-51b4-48d3-8f93-1440fdcc0c75",
      "pbrMetallicRoughness": {
        "baseColorFactor": [
          1.0,
          1.0,
          1.0,
          0.652
        ],
        "baseColorTexture": {
          "index": 4
        },
        "metallicFactor": 0.0
      }
    },
    {
      "alphaMode": "BLEND",
      "doubleSided": true,
      "emissiveFactor": [
        1.0,
        1.0,
        1.0
      ],
      "emissiveTexture": {
        "index": 5
      },
      "extensions": {
        "KHR_materials_clearcoat": {
          "clearcoatFactor": 1.0,
          "clearcoatRoughnessFactor": 0.04
        }
      },
      "name": "Sonata_9_2c03ab2d-c77c-42f5-a7d0-40c365fe9adb",
      "pbrMetallicRoughness": {
        "baseColorFactor": [
          1.0,
          1.0,
          1.0,
          0.652288577178678
        ],
        "baseColorTexture": {
          "index": 5
        },
        "metallicFactor": 0.0
      }
    }
  ],
  "meshes": [
    {
      "name": "Object_0",
      "primitives": [
        {
          "attributes": {
            "NORMAL": 1,
            "POSITION": 0,
            "TEXCOORD_0": 2
          },
          "indices": 3,
          "material": 0,
          "mode": 4
        }
      ]
    },
    {
      "name": "Object_1",
      "primitives": [
        {
          "attributes": {
            "NORMAL": 5,
            "POSITION": 4,
            "TEXCOORD_0": 6
          },
          "indices": 7,
          "material": 1,
          "mode": 4
        }
      ]
    },
    {
      "name": "Object_2",
      "primitives": [
        {
          "attributes": {
            "NORMAL": 9,
            "POSITION": 8,
            "TEXCOORD_0": 10
          },
          "indices": 11,
          "material": 2,
          "mode": 4
        }
      ]
    },
    {
      "name": "Object_3",
      "primitives": [
        {
          "attributes": {
            "NORMAL": 13,
            "POSITION": 12,
            "TEXCOORD_0": 14
          },
          "indices": 15,
          "material": 3,
          "mode": 4
        }
      ]
    },
    {
      "name": "Object_4",
      "primitives": [
        {
          "attributes": {
            "NORMAL": 17,
            "POSITION": 16,
            "TEXCOORD_0": 18
          },
          "indices": 19,
          "material": 4,
          "mode": 4
        }
      ]
    }
  ],
  "nodes": [
    {
      "children": [
        1
      ],
      "matrix": [
        1.0,
        0.0,
        0.0,
        0.0,
        0.0,
        2.220446049250313e-16,
        -1.0,
        0.0,
        0.0,
        1.0,
        2.220446049250313e-16,
        0.0,
        0.0,
        0.0,
        0.0,
        1.0
      ],
      "name": "Sketchfab_model"
    },
    {
      "children": [
        2,
        3,
        4,
        5,
        6
      ],
      "name": "Neon Sign Test copy 2.obj.cleaner.materialmerger.gles"
    },
    {
      "mesh": 0,
      "name": "Object_2"
    },
    {
      "mesh": 1,
      "name": "Object_3"
    },
    {
      "mesh": 2,
      "name": "Object_4"
    },
    {
      "mesh": 3,
      "name": "Object_5"
    },
    {
      "mesh": 4,
      "name": "Object_6"
    }
  ],
  "samplers": [
    {
      "magFilter": 9729,
      "minFilter": 9987,
      "wrapS": 10497,
      "wrapT": 10497
    }
  ],
  "scene": 0,
  "scenes": [
    {
      "name": "Sketchfab_Scene",
      "nodes": [
        0
      ]
    }
  ],
  "textures": [
    {
      "sampler": 0,
      "source": 0
    },
    {
      "sampler": 0,
      "source": 1
    },
    {
      "sampler": 0,
      "source": 2
    },
    {
      "sampler": 0,
      "source": 3
    },
    {
      "sampler": 0,
      "source": 4
    },
    {
      "sampler": 0,
      "source": 5
    }
  ]
}
